<svg xmlns="http://www.w3.org/2000/svg" viewBox="0 0 150 130" role="img" aria-label="Casa sencilla Flow">
  <defs>
    <linearGradient id="wall" x1="0" y1="0" x2="0" y2="1">
      <stop offset="0" stop-color="#f0dfc5"/>
      <stop offset="1" stop-color="#d6b894"/>
    </linearGradient>
    <linearGradient id="roof" x1="0" y1="0" x2="1" y2="1">
      <stop offset="0" stop-color="#bd7556"/>
      <stop offset="1" stop-color="#8e513e"/>
    </linearGradient>
  </defs>
  <ellipse cx="75" cy="116" rx="50" ry="10" fill="#302b25" opacity="0.16"/>
  <path d="M36 55 L75 25 L116 55 L108 62 L75 39 L43 62 Z" fill="url(#roof)"/>
  <path d="M43 58 L108 58 L108 107 L43 107 Z" fill="url(#wall)"/>
  <path d="M43 58 L75 39 L108 58" fill="none" stroke="#7c4737" stroke-width="4" stroke-linejoin="round" opacity="0.45"/>
  <rect x="63" y="76" width="22" height="31" rx="3" fill="#7a5a43"/>
  <circle cx="80" cy="92" r="2" fill="#d6b894"/>
  <rect x="49" y="70" width="16" height="15" rx="3" fill="#9db7b0" opacity="0.88"/>
  <rect x="89" y="70" width="16" height="15" rx="3" fill="#9db7b0" opacity="0.88"/>
  <path d="M49 88 C61 94 92 95 106 88" fill="none" stroke="#b99b6d" stroke-width="4" stroke-linecap="round" opacity="0.4"/>
</svg>
